<?xml version="1.0" standalone="no"?>
<!DOCTYPE svg PUBLIC "-//W3C//DTD SVG 20010904//EN"
 "http://www.w3.org/TR/2001/REC-SVG-20010904/DTD/svg10.dtd">
<svg version="1.0" xmlns="http://www.w3.org/2000/svg"
 width="200.000000pt" height="200.000000pt" viewBox="0 0 200.000000 200.000000"
 preserveAspectRatio="xMidYMid meet">

<g transform="translate(0.000000,200.000000) scale(0.100000,-0.100000)"
fill="#000000" stroke="none">
<path d="M800 1969 c-29 -48 -33 -71 -28 -149 8 -103 62 -202 182 -330 l46
-49 44 47 c135 146 186 243 187 358 1 43 -5 74 -20 102 -29 57 -44 64 -34 15
15 -70 9 -194 -11 -248 -27 -71 -94 -179 -134 -217 l-34 -33 -42 48 c-106 119
-160 279 -139 413 6 38 9 71 7 73 -2 2 -12 -12 -24 -30z"/>
<path d="M1268 1813 c-7 -101 -49 -173 -170 -298 l-98 -100 -97 100 c-119 121
-161 194 -170 291 -6 61 -7 64 -19 43 -21 -38 -16 -99 12 -159 18 -40 54 -83
131 -158 108 -106 132 -145 46 -75 -26 22 -70 56 -96 77 -27 21 -60 56 -75 78
-33 50 -42 33 -11 -22 16 -28 50 -59 109 -100 121 -82 120 -80 65 -128 -25
-22 -42 -43 -38 -45 5 -3 28 13 51 35 57 54 67 40 12 -17 -24 -25 -40 -48 -36
-52 4 -5 27 14 50 40 54 63 68 49 15 -14 -23 -27 -35 -49 -27 -49 7 1 25 19
40 40 15 22 32 40 37 40 5 0 24 -18 41 -40 17 -22 36 -40 42 -40 5 0 -9 22
-31 49 -53 63 -36 76 18 14 22 -26 44 -44 48 -40 4 4 -13 27 -37 52 -56 57
-44 73 13 17 24 -24 46 -39 50 -36 4 4 -14 25 -39 47 -54 47 -55 45 66 127 59
41 93 72 109 100 31 55 22 72 -12 22 -26 -41 -214 -198 -224 -188 -3 2 42 51
100 108 77 75 113 118 131 158 29 61 33 130 12 169 -12 22 -14 18 -18 -46z
m-278 -407 c0 -3 -4 -8 -10 -11 -5 -3 -10 -1 -10 4 0 6 5 11 10 11 6 0 10 -2
10 -4z m40 -6 c0 -5 -2 -10 -4 -10 -3 0 -8 5 -11 10 -3 6 -1 10 4 10 6 0 11
-4 11 -10z m-20 -20 c0 -5 -4 -10 -10 -10 -5 0 -10 5 -10 10 0 6 5 10 10 10 6
0 10 -4 10 -10z"/>
<path d="M770 991 c-39 -7 -39 -5 -21 -84 14 -63 12 -398 -3 -429 -7 -16 -2
-18 44 -18 l52 0 -4 245 -3 245 71 0 c166 0 259 -67 278 -201 14 -99 -30 -198
-111 -250 l-47 -29 51 0 c51 0 103 28 144 76 28 33 49 103 49 162 0 136 -99
246 -252 282 -46 10 -191 11 -248 1z"/>
<path d="M1547 797 c3 -207 15 -324 36 -350 7 -8 34 -18 60 -22 l49 -6 -24 31
c-22 31 -23 39 -28 288 l-5 257 -46 2 -45 2 3 -202z"/>
<path d="M145 975 c-22 -8 -57 -32 -77 -56 -32 -35 -38 -49 -38 -86 0 -91 38
-130 208 -218 40 -21 82 -49 92 -63 26 -33 26 -86 -1 -113 l-20 -20 48 7 c59
9 72 25 73 88 0 86 -36 123 -196 204 -104 52 -126 77 -122 132 4 53 35 80 101
87 54 6 107 -10 149 -45 l31 -27 -7 45 c-4 24 -12 48 -19 52 -45 29 -157 36
-222 13z"/>
<path d="M1920 751 c0 -260 -5 -290 -56 -330 -32 -25 -31 -26 18 -34 33 -5 40
-2 64 26 51 61 54 78 54 337 l0 240 -40 0 -40 0 0 -239z"/>
<path d="M0 476 c0 -51 2 -56 34 -75 27 -17 43 -20 80 -15 25 4 46 9 46 13 0
3 -17 14 -38 24 -20 9 -53 38 -72 62 -19 25 -38 45 -42 45 -5 0 -8 -24 -8 -54z"/>
<path d="M292 74 c3 -54 5 -59 32 -69 24 -8 31 -6 47 14 20 25 26 95 9 106 -6
4 -10 -13 -10 -43 0 -52 -17 -79 -45 -68 -11 4 -15 20 -15 55 0 27 -5 53 -11
56 -7 5 -9 -13 -7 -51z"/>
<path d="M470 128 c-5 -28 -3 -121 2 -125 5 -2 8 17 8 43 l0 47 30 -41 c17
-23 32 -42 35 -42 3 0 4 28 3 63 -1 59 -1 60 -7 18 l-6 -45 -28 42 c-24 36
-36 49 -37 40z"/>
<path d="M630 71 c0 -33 5 -63 10 -66 6 -4 10 18 10 59 0 37 -4 66 -10 66 -6
0 -10 -26 -10 -59z"/>
<path d="M730 121 c0 -5 12 -35 27 -67 l27 -59 27 60 c30 67 33 75 21 75 -5 0
-14 -18 -21 -40 -16 -55 -26 -57 -48 -5 -16 41 -33 59 -33 36z"/>
<path d="M910 71 c0 -63 13 -77 55 -60 16 6 14 8 -12 8 -39 1 -46 27 -11 40
l22 8 -23 6 c-30 8 -24 42 7 41 12 0 22 3 22 8 0 4 -13 8 -30 8 -30 0 -30 0
-30 -59z"/>
<path d="M1050 70 c0 -33 4 -60 10 -60 6 0 10 7 10 15 0 21 22 19 43 -5 9 -11
22 -20 29 -20 6 0 1 11 -11 24 -14 15 -19 26 -12 31 15 8 14 48 -1 63 -7 7
-25 12 -40 12 -28 0 -28 -1 -28 -60z m58 21 c3 -21 -11 -40 -30 -41 -5 0 -8
16 -8 36 0 28 3 35 18 32 9 -2 19 -14 20 -27z"/>
<path d="M1227 123 c-16 -16 -5 -45 23 -61 37 -21 35 -48 -3 -45 -15 1 -25 -2
-22 -8 10 -15 51 -10 66 7 16 19 3 44 -29 59 -12 5 -22 18 -22 29 0 14 6 17
25 14 14 -3 25 -1 25 3 0 10 -54 12 -63 2z"/>
<path d="M1370 71 c0 -33 5 -63 10 -66 6 -4 10 18 10 59 0 37 -4 66 -10 66 -6
0 -10 -26 -10 -59z"/>
<path d="M1465 120 c-3 -5 3 -10 14 -10 18 0 21 -6 21 -50 0 -29 5 -50 11 -50
6 0 9 18 8 47 -3 39 0 48 14 51 9 2 17 8 17 13 0 12 -77 12 -85 -1z"/>
<path d="M1623 113 c3 -10 14 -40 23 -66 l17 -48 17 48 c9 26 20 56 25 66 4
10 3 17 -3 17 -6 0 -13 -13 -17 -30 -10 -43 -22 -45 -36 -5 -13 35 -37 51 -26
18z"/>
</g>
</svg>
